<svg xmlns="http://www.w3.org/2000/svg" version="1.1" xmlns:xlink="http://www.w3.org/1999/xlink" xmlns:svgjs="http://svgjs.dev/svgjs" width="2000" height="1176" viewBox="0 0 2000 1176"><g transform="matrix(1,0,0,1,-1.2121212121212466,-1.2459053870828711)"><svg viewBox="0 0 396 233" data-background-color="#10da1c" preserveAspectRatio="xMidYMid meet" height="1176" width="2000" xmlns="http://www.w3.org/2000/svg" xmlns:xlink="http://www.w3.org/1999/xlink"><g id="tight-bounds" transform="matrix(1,0,0,1,0.2400000000000091,0.24685030203258407)"><svg viewBox="0 0 395.52 232.50629939593483" height="232.50629939593483" width="395.52"><g><svg viewBox="0 0 397.4975999999999 233.66883089291449" height="232.50629939593483" width="395.52"><g><rect width="397.4975999999999" height="7.1569676687839126" x="0" y="128.4141172573319" fill="#4d331f" opacity="1" stroke-width="0" stroke="transparent" fill-opacity="1" class="rect-yte-0" data-fill-palette-color="secondary" rx="1%" id="yte-0" data-palette-color="#4d331f"></rect></g><g transform="matrix(1,0,0,1,0.9887999999999693,154.30660238366534)"><svg viewBox="0 0 395.52 79.36222850924918" height="79.36222850924918" width="395.52"><g id="textblocktransform"><svg viewBox="0 0 395.52 79.36222850924918" height="79.36222850924918" width="395.52" id="textblock"><g><svg viewBox="0 0 395.52 79.36222850924918" height="79.36222850924918" width="395.52"><g transform="matrix(1,0,0,1,0,0)"><svg width="395.52" viewBox="4 -35.01 224.34 45.019999999999996" height="79.36222850924918" data-palette-color="#4d331f"><path d="M23.71 0L22.05 0 7.45-25.49 7.15-27 7.15 0 4 0 4-35.01 5.64-35.01 20.24-9.5 20.56-8.01 20.56-35.01 23.71-35.01 23.71 0ZM46.92 0L45.92 0 44.26-2.49Q43.23-1.15 41.7-0.33 40.16 0.49 38.33 0.49L38.33 0.49 37.57 0.49Q36.06 0.49 34.71-0.09 33.37-0.66 32.37-1.66 31.37-2.66 30.8-4 30.22-5.35 30.22-6.86L30.22-6.86 30.22-7.1Q30.22-8.62 30.8-9.96 31.37-11.3 32.37-12.3 33.37-13.31 34.71-13.88 36.06-14.45 37.57-14.45L37.57-14.45 43.92-14.45 43.92-18.31Q43.92-19.21 43.58-20.01 43.23-20.8 42.65-21.39 42.06-21.97 41.27-22.31 40.48-22.66 39.57-22.66L39.57-22.66 37.81-22.66Q36.91-22.66 36.12-22.31 35.32-21.97 34.74-21.39 34.15-20.8 33.81-20.01 33.47-19.21 33.47-18.31L33.47-18.31 33.47-17.41 30.47-17.9 30.47-18.14Q30.47-19.65 31.04-21 31.61-22.34 32.61-23.34 33.62-24.34 34.96-24.91 36.3-25.49 37.81-25.49L37.81-25.49 39.57-25.49Q41.09-25.49 42.43-24.91 43.77-24.34 44.77-23.34 45.77-22.34 46.35-21 46.92-19.65 46.92-18.14L46.92-18.14 46.92 0ZM43.92-6.69L43.92-12.11 37.57-12.11Q36.67-12.11 35.87-11.77 35.08-11.43 34.49-10.83 33.91-10.23 33.57-9.44 33.23-8.64 33.23-7.74L33.23-7.74 33.23-6.69Q33.23-5.79 33.57-4.99 33.91-4.2 34.49-3.61 35.08-3.03 35.87-2.69 36.67-2.34 37.57-2.34L37.57-2.34 39.57-2.34Q40.48-2.34 41.27-2.69 42.06-3.03 42.65-3.61 43.23-4.2 43.58-4.99 43.92-5.79 43.92-6.69L43.92-6.69ZM69.62 0L68.62 0 66.96-2.54Q65.94-1.15 64.4-0.33 62.86 0.49 61.03 0.49L61.03 0.49 60.27 0.49Q58.76 0.49 57.42-0.09 56.07-0.66 55.07-1.66 54.07-2.66 53.5-4 52.92-5.35 52.92-6.86L52.92-6.86 52.92-25 55.93-25 55.93-6.69Q55.93-5.79 56.27-4.99 56.61-4.2 57.2-3.61 57.78-3.03 58.58-2.69 59.37-2.34 60.27-2.34L60.27-2.34 62.28-2.34Q63.18-2.34 63.97-2.69 64.77-3.03 65.35-3.61 65.94-4.2 66.28-4.99 66.62-5.79 66.62-6.69L66.62-6.69 66.62-25 69.62-25 69.62 0ZM85.98-22.14L82.98-22.14Q82.07-22.14 81.28-21.8 80.49-21.46 79.9-20.87 79.31-20.29 78.97-19.49 78.63-18.7 78.63-17.8L78.63-17.8 78.63 0 75.63 0 75.63-25 76.63-25 78.26-22.46Q79.29-23.85 80.84-24.67 82.39-25.49 84.22-25.49L84.22-25.49 85.98-25.49 85.98-22.14ZM106.68 0L105.68 0 104.02-2.49Q102.99-1.15 101.45-0.33 99.92 0.49 98.09 0.49L98.09 0.49 97.33 0.49Q95.82 0.49 94.47-0.09 93.13-0.66 92.13-1.66 91.13-2.66 90.55-4 89.98-5.35 89.98-6.86L89.98-6.86 89.98-7.1Q89.98-8.62 90.55-9.96 91.13-11.3 92.13-12.3 93.13-13.31 94.47-13.88 95.82-14.45 97.33-14.45L97.33-14.45 103.68-14.45 103.68-18.31Q103.68-19.21 103.33-20.01 102.99-20.8 102.41-21.39 101.82-21.97 101.03-22.31 100.23-22.66 99.33-22.66L99.33-22.66 97.57-22.66Q96.67-22.66 95.88-22.31 95.08-21.97 94.5-21.39 93.91-20.8 93.57-20.01 93.23-19.21 93.23-18.31L93.23-18.31 93.23-17.41 90.22-17.9 90.22-18.14Q90.22-19.65 90.8-21 91.37-22.34 92.37-23.34 93.37-24.34 94.72-24.91 96.06-25.49 97.57-25.49L97.57-25.49 99.33-25.49Q100.84-25.49 102.19-24.91 103.53-24.34 104.53-23.34 105.53-22.34 106.11-21 106.68-19.65 106.68-18.14L106.68-18.14 106.68 0ZM103.68-6.69L103.68-12.11 97.33-12.11Q96.43-12.11 95.63-11.77 94.84-11.43 94.25-10.83 93.67-10.23 93.32-9.44 92.98-8.64 92.98-7.74L92.98-7.74 92.98-6.69Q92.98-5.79 93.32-4.99 93.67-4.2 94.25-3.61 94.84-3.03 95.63-2.69 96.43-2.34 97.33-2.34L97.33-2.34 99.33-2.34Q100.23-2.34 101.03-2.69 101.82-3.03 102.41-3.61 102.99-4.2 103.33-4.99 103.68-5.79 103.68-6.69L103.68-6.69ZM129.38 0L126.38 0 126.38-18.31Q126.38-19.21 126.04-20.01 125.7-20.8 125.11-21.39 124.52-21.97 123.73-22.31 122.94-22.66 122.03-22.66L122.03-22.66 120.03-22.66Q119.13-22.66 118.33-22.31 117.54-21.97 116.96-21.39 116.37-20.8 116.03-20.01 115.69-19.21 115.69-18.31L115.69-18.31 115.69 0 112.68 0 112.68-25 113.68-25 115.32-22.46Q116.34-23.85 117.9-24.67 119.45-25.49 121.28-25.49L121.28-25.49 122.03-25.49Q123.55-25.49 124.89-24.91 126.23-24.34 127.23-23.34 128.23-22.34 128.81-21 129.38-19.65 129.38-18.14L129.38-18.14 129.38 0ZM152.33 3.15L152.33 3.15Q152.33 4.66 151.76 5.93 151.18 7.2 150.18 8.11 149.18 9.01 147.84 9.51 146.49 10.01 144.98 10.01L144.98 10.01 143.74 10.01Q142.22 10.01 140.88 9.51 139.54 9.01 138.53 8.11 137.53 7.2 136.96 5.93 136.39 4.66 136.39 3.15L136.39 3.15 136.39 3.05Q136.39 1.59 136.92 0.37 137.46-0.85 138.39-1.76L138.39-1.76Q137.22-2.47 136.52-3.67 135.82-4.88 135.82-6.35L135.82-6.35Q135.82-7.67 136.39-8.8 136.95-9.94 137.92-10.64L137.92-10.64Q136.75-11.67 136.07-13.11 135.39-14.55 135.39-16.26L135.39-16.26 135.39-18.14Q135.39-19.65 135.96-21 136.53-22.34 137.53-23.34 138.53-24.34 139.88-24.91 141.22-25.49 142.73-25.49L142.73-25.49 143.98-25.49Q145.81-25.49 147.36-24.67 148.91-23.85 149.94-22.46L149.94-22.46 151.57-25 152.57-25 152.57-16.26Q152.57-14.75 152-13.4 151.43-12.06 150.42-11.06 149.42-10.06 148.08-9.48 146.74-8.91 145.22-8.91L145.22-8.91 140.88-8.91Q140.37-8.91 139.9-8.7 139.44-8.5 139.08-8.15 138.73-7.81 138.53-7.34 138.34-6.86 138.34-6.35L138.34-6.35Q138.34-5.83 138.53-5.37 138.73-4.91 139.08-4.55 139.44-4.2 139.9-4 140.37-3.81 140.88-3.81L140.88-3.81 144.98-3.81Q146.49-3.81 147.84-3.31 149.18-2.81 150.18-1.9 151.18-1 151.76 0.27 152.33 1.54 152.33 3.05L152.33 3.05 152.33 3.15ZM149.59-16.09L149.59-18.31Q149.59-19.21 149.25-20.01 148.91-20.8 148.31-21.39 147.71-21.97 146.92-22.31 146.13-22.66 145.22-22.66L145.22-22.66 142.73-22.66Q141.83-22.66 141.04-22.31 140.24-21.97 139.66-21.39 139.07-20.8 138.73-20.01 138.39-19.21 138.39-18.31L138.39-18.31 138.39-16.09Q138.39-15.19 138.73-14.39 139.07-13.6 139.66-13.01 140.24-12.43 141.04-12.08 141.83-11.74 142.73-11.74L142.73-11.74 145.22-11.74Q146.13-11.74 146.92-12.08 147.71-12.43 148.31-13.01 148.91-13.6 149.25-14.39 149.59-15.19 149.59-16.09L149.59-16.09ZM149.47 3.3L149.47 2.91Q149.47 2 149.13 1.28 148.79 0.56 148.2 0.07 147.62-0.42 146.82-0.68 146.03-0.95 145.13-0.95L145.13-0.95 143.59-0.95Q142.69-0.95 141.89-0.68 141.1-0.42 140.51 0.07 139.93 0.56 139.58 1.28 139.24 2 139.24 2.91L139.24 2.91 139.24 3.3Q139.24 4.2 139.58 4.91 139.93 5.62 140.51 6.12 141.1 6.62 141.89 6.88 142.69 7.15 143.59 7.15L143.59 7.15 145.13 7.15Q146.03 7.15 146.82 6.88 147.62 6.62 148.2 6.12 148.79 5.62 149.13 4.91 149.47 4.2 149.47 3.3L149.47 3.3ZM162.34-31.01L158.84-31.01 158.84-35.01 162.34-35.01 162.34-31.01ZM162.09 0L159.09 0 159.09-25 162.09-25 162.09 0ZM197.63 0L181.08 0 181.08-35.01 184.23-35.01 184.23-3 197.63-3 197.63 0ZM218.33 0L217.33 0 215.67-2.49Q214.65-1.15 213.11-0.33 211.57 0.49 209.74 0.49L209.74 0.49 208.98 0.49Q207.47 0.49 206.13-0.09 204.78-0.66 203.78-1.66 202.78-2.66 202.21-4 201.64-5.35 201.64-6.86L201.64-6.86 201.64-7.1Q201.64-8.62 202.21-9.96 202.78-11.3 203.78-12.3 204.78-13.31 206.13-13.88 207.47-14.45 208.98-14.45L208.98-14.45 215.33-14.45 215.33-18.31Q215.33-19.21 214.99-20.01 214.65-20.8 214.06-21.39 213.48-21.97 212.68-22.31 211.89-22.66 210.99-22.66L210.99-22.66 209.23-22.66Q208.32-22.66 207.53-22.31 206.74-21.97 206.15-21.39 205.57-20.8 205.22-20.01 204.88-19.21 204.88-18.31L204.88-18.31 204.88-17.41 201.88-17.9 201.88-18.14Q201.88-19.65 202.45-21 203.03-22.34 204.03-23.34 205.03-24.34 206.37-24.91 207.71-25.49 209.23-25.49L209.23-25.49 210.99-25.49Q212.5-25.49 213.84-24.91 215.18-24.34 216.19-23.34 217.19-22.34 217.76-21 218.33-19.65 218.33-18.14L218.33-18.14 218.33 0ZM215.33-6.69L215.33-12.11 208.98-12.11Q208.08-12.11 207.29-11.77 206.49-11.43 205.91-10.83 205.32-10.23 204.98-9.44 204.64-8.64 204.64-7.74L204.64-7.74 204.64-6.69Q204.64-5.79 204.98-4.99 205.32-4.2 205.91-3.61 206.49-3.03 207.29-2.69 208.08-2.34 208.98-2.34L208.98-2.34 210.99-2.34Q211.89-2.34 212.68-2.69 213.48-3.03 214.06-3.61 214.65-4.2 214.99-4.99 215.33-5.79 215.33-6.69L215.33-6.69ZM228.34 0L225.34 0 225.34-35.01 228.34-35.01 228.34 0Z" opacity="1" transform="matrix(1,0,0,1,0,0)" fill="#4d331f" class="wordmark-text-0" data-fill-palette-color="primary" id="text-0"></path></svg></g></svg></g></svg></g></svg></g><g transform="matrix(1,0,0,1,143.3356552948857,0)"><svg viewBox="0 0 110.82628941022851 109.67859979978238" height="109.67859979978238" width="110.82628941022851"><g><svg xmlns="http://www.w3.org/2000/svg" xmlns:xlink="http://www.w3.org/1999/xlink" version="1.1" x="8" y="0" viewBox="9 1 83 96" enable-background="new 0 0 100 100" xml:space="preserve" height="109.67859979978238" width="94.82628941022851" class="icon-icon-0" data-fill-palette-color="accent" id="icon-0"><g fill="#4d331f" data-fill-palette-color="accent"><path fill="#4d331f" d="M71.3 10.01C57.831 10.01 50.55 1 50.55 1S43.244 10.01 29.776 10.01C17.371 10.01 9 2.528 9 2.528V51.456C9.378 83.682 50.5 97 50.5 97S92 83.682 92 51.456V2.528S83.703 10.01 71.3 10.01" data-fill-palette-color="accent"></path></g></svg></g></svg></g><g><rect width="66.80253529488573" height="7.1569676687839126" y="101.52163213099847" x="254.1619447051142" fill="#4d331f" data-fill-palette-color="secondary"></rect><rect width="66.80253529488573" height="7.1569676687839126" y="101.52163213099847" x="76.53311999999997" fill="#4d331f" data-fill-palette-color="secondary"></rect></g></svg></g><defs></defs></svg><rect width="395.52" height="232.50629939593483" fill="none" stroke="none" visibility="hidden"></rect></g></svg></g></svg>